:version 1.10
:name ASF
:units
  mass 1
  length 1
  angle deg
:documentation
  ASF file generated by Kaydara
:root
  axis xyz
  order  tx ty tz rx ry rz
  position 0 0 0
  orientation 0 0 0
:bonedata
  begin
    id 1
    name RightUpLegDummy
    direction -1 2.30186e-007 8.31532e-007
    length 4.46685
    axis 0 0 0 xyz
  end
  begin
    id 2
    name RightUpLeg
    direction -2.30187e-007 -1 1.24343e-010
    length 16.4045
    axis -3.49089 -0.000906625 0.000286804 xyz
    dof rx ry rz
  end
  begin
    id 3
    name RightLeg
    direction -2.30181e-007 -1 -4.17157e-009
    length 17.5097
    axis 3.68512 0.0193738 -0.131023 xyz
    dof rx ry rz
  end
  begin
    id 4
    name RightFoot
    direction 8.31421e-007 -4.51202e-011 1
    length 6.49508
    axis 4.81691e-005 -0.120479 -0.188788 xyz
    dof rx ry rz
  end
  begin
    id 5
    name RightToes
    direction 0.00124746 -0.014064 0.9999
    length 3.85082
    axis 0.000481921 0.542163 -0.142578 xyz
    dof rx ry rz
  end
  begin
    id 6
    name SpineDummy
    direction 0.0717043 0.9409 -0.331007
    length 10.0032
    axis 0 0 0 xyz
  end
  begin
    id 7
    name Spine
    direction 2.30186e-007 1 4.58806e-011
    length 9.84055
    axis -0.001389 0.000121418 2.40972e-006 xyz
    dof rx ry rz
  end
  begin
    id 8
    name Spine1
    direction 0 0 0
    length 0
    axis -0.001389 0.000121451 1.30017e-006 xyz
    dof rx ry rz
  end
  begin
    id 9
    name HEadDummy
    direction -0.00347485 0.950688 -0.310128
    length 8.00997
    axis -0.001389 0.000121451 1.30017e-006 xyz
  end
  begin
    id 10
    name HEad
    direction -0.0222688 0.980941 0.193023
    length 5.12695
    axis -0.001389 0.000121451 1.30017e-006 xyz
    dof rx ry rz
  end
  begin
    id 11
    name LeftShoulder1Dummy
    direction 0.988871 0.146793 -0.0242004
    length 3.5792
    axis -0.001389 0.000121451 1.30017e-006 xyz
  end
  begin
    id 12
    name LeftShoulder1
    direction 0.993832 0.108932 0.020779
    length 4.16823
    axis -0.001389 0.000121451 1.30017e-006 xyz
    dof rx ry rz
  end
  begin
    id 13
    name LeftArm
    direction 1 3.44807e-006 -8.31404e-007
    length 9.91437
    axis -23.1894 0.134784 0.967509 xyz
    dof rx ry rz
  end
  begin
    id 14
    name LeftForeArm
    direction 1 3.44842e-006 -8.31581e-007
    length 9.08575
    axis -9.91835 -0.06569 -0.177793 xyz
    dof rx ry rz
  end
  begin
    id 15
    name LeftHand
    direction 0.992938 -0.0411636 0.11126
    length 5.32135
    axis -0.00960232 -0.00340091 0.185173 xyz
    dof rx ry rz
  end
  begin
    id 16
    name RightShoulderDummy
    direction -0.988871 0.146793 -0.0241962
    length 3.5792
    axis -0.001389 0.000121451 1.30017e-006 xyz
  end
  begin
    id 17
    name RightShoulder
    direction -0.993832 0.108933 0.0207785
    length 4.16823
    axis 0.215806 0.000203643 -0.0068026 xyz
    dof rx ry rz
  end
  begin
    id 18
    name RightArm
    direction -1 3.90912e-006 8.31284e-007
    length 9.91437
    axis -23.2009 -0.134239 -0.964101 xyz
    dof rx ry rz
  end
  begin
    id 19
    name RightForeArm
    direction -1 3.90882e-006 8.31502e-007
    length 9.08575
    axis -9.92322 0.0658061 0.178867 xyz
    dof rx ry rz
  end
  begin
    id 20
    name RightHand
    direction -0.992843 -0.0414603 0.112003
    length 5.28593
    axis -0.00960638 0.00330671 -0.185228 xyz
    dof rx ry rz
  end
  begin
    id 21
    name LeftUpLegDummy
    direction 1 -2.30186e-007 -8.31532e-007
    length 4.46685
    axis 0 0 0 xyz
  end
  begin
    id 22
    name LeftUpLeg
    direction -2.30187e-007 -1 6.00931e-010
    length 16.4045
    axis -3.48766 0.00143442 -0.000524262 xyz
    dof rx ry rz
  end
  begin
    id 23
    name LeftLeg
    direction -2.30187e-007 -1 1.6669e-009
    length 17.5097
    axis 3.68178 -0.00654042 -0.000285133 xyz
    dof rx ry rz
  end
  begin
    id 24
    name LeftFoot
    direction 8.31532e-007 -4.54478e-011 1
    length 6.49508
    axis 1.87233e-006 4.66016e-005 -8.6538e-006 xyz
    dof rx ry rz
  end
  begin
    id 25
    name LeftToes
    direction 0.00818058 -0.00485161 0.999955
    length 3.85048
    axis 1.06247e-005 4.65869e-005 -8.65513e-006 xyz
    dof rx ry rz
  end
:hierarchy
  begin
    root RightUpLegDummy SpineDummy LeftUpLegDummy
    RightUpLegDummy RightUpLeg
    RightUpLeg RightLeg
    RightLeg RightFoot
    RightFoot RightToes
    SpineDummy Spine
    Spine Spine1
    Spine1 HEadDummy LeftShoulder1Dummy RightShoulderDummy
    HEadDummy HEad
    LeftShoulder1Dummy LeftShoulder1
    LeftShoulder1 LeftArm
    LeftArm LeftForeArm
    LeftForeArm LeftHand
    RightShoulderDummy RightShoulder
    RightShoulder RightArm
    RightArm RightForeArm
    RightForeArm RightHand
    LeftUpLegDummy LeftUpLeg
    LeftUpLeg LeftLeg
    LeftLeg LeftFoot
    LeftFoot LeftToes
  end

:SAMPLES-PER-SECOND 30
:FULLY-SPECIFIED
:DEGREES
96
root  -69.038 24.3245 50.1841 -134.66 70.8587 -157.513
RightUpLeg  -66.6388 2.84399 -22.6769
RightLeg  69.5388 2.95442 6.39882
RightFoot  -18.3193 -0.0621258 -0.00774597
RightToes  -57.436 -0.370501 -0.391073
Spine  23.6242 -4.12135 4.53446
Spine1  35.2517 -12.7306 12.4661
HEad  -2.09935 7.17081 -1.86075
LeftShoulder1  0 -2.42657e-020 -4.95415e-022
LeftArm  -37.5264 -56.2477 -82.4197
LeftForeArm  35.983 -0.990495 -0.177983
LeftHand  0.00563085 -0.105648 1.79674
RightShoulder  0 2.42657e-020 1.07489e-018
RightArm  -12.653 34.892 81.254
RightForeArm  78.6564 51.0299 12.5012
RightHand  -8.12145 18.959 -45.7107
LeftUpLeg  -73.6277 0.451316 39.4804
LeftLeg  74.5227 -4.6909 -13.2646
LeftFoot  -18.657 0.147512 0.897969
LeftToes  -40.1845 2.01279e-006 2.21547e-008
97
root  -69.048 23.327 49.0038 -127.701 73.3656 -148.736
RightUpLeg  -67.1135 5.83939 -25.3844
RightLeg  70.8261 2.93281 6.7453
RightFoot  -19.8142 -0.0510091 0.0854973
RightToes  -57.3677 -0.369865 -0.390868
Spine  25.4098 -2.29809 5.83837
Spine1  38.0914 -8.87156 12.4364
HEad  -0.891187 5.20402 -2.48498
LeftShoulder1  0 -2.42657e-020 -4.95415e-022
LeftArm  -31.2453 -61.2318 -86.3368
LeftForeArm  34.21 -1.1984 -0.21589
LeftHand  0.00433642 0.213979 1.89053
RightShoulder  0 2.42657e-020 1.07489e-018
RightArm  -16.2466 43.5674 76.9209
RightForeArm  74.8469 38.1136 7.8601
RightHand  -7.34486 22.1533 -35.9434
LeftUpLeg  -75.1532 1.52734 38.4881
LeftLeg  82.1791 -4.00506 -18.975
LeftFoot  -21.8761 0.609205 3.15151
LeftToes  -39.1386 2.01279e-006 2.21547e-008
98
root  -69.1573 22.7345 47.244 -125.343 78.4835 -145.116
RightUpLeg  -66.8376 7.39491 -31.7353
RightLeg  69.5126 3.59362 7.79225
RightFoot  -20.0665 -0.0613794 0.0306271
RightToes  -60.7475 -0.401614 -0.400097
Spine  26.9363 -0.898921 5.99327
Spine1  40.8506 -5.54627 10.6204
HEad  1.2406 3.34797 -3.15469
LeftShoulder1  0 -2.42657e-020 -4.95415e-022
LeftArm  -23.8676 -65.4572 -92.5983
LeftForeArm  33.3182 -0.859122 -0.157221
LeftHand  0.00586865 0.172021 3.40069
RightShoulder  0 2.42657e-020 1.07489e-018
RightArm  -30.8145 53.1899 71.7804
RightForeArm  56.0929 24.0843 4.47787
RightHand  -4.05515 20.9486 -21.3175
LeftUpLeg  -74.3583 1.28771 32.7786
LeftLeg  87.4803 -1.67498 -15.1173
LeftFoot  -26.3537 0.566127 2.41774
LeftToes  -36.1493 2.01279e-006 2.21547e-008
99
root  -69.6303 22.9459 45.0697 -97.4841 86.0953 -117.963
RightUpLeg  -68.0681 9.93697 -40.7191
RightLeg  62.8536 3.57806 5.86674
RightFoot  -18.7656 0.0541492 0.705274
RightToes  -59.8447 -0.39308 -0.397816
Spine  26.92 0.615668 4.45453
Spine1  40.7707 -3.51163 10.2092
HEad  0.475536 0.803003 -3.76135
LeftShoulder1  0 -2.42657e-020 -4.95415e-022
LeftArm  -15.808 -67.2116 -99.4144
LeftForeArm  33.4357 -0.409426 -0.0784681
LeftHand  0.00465716 0.106891 4.33783
RightShoulder  0 2.42657e-020 1.07489e-018
RightArm  -45.8239 54.9675 65.1355
RightForeArm  48.6766 24.4686 4.57396
RightHand  -4.32278 22.6231 -21.0054
LeftUpLeg  -72.0463 2.39686 25.1748
LeftLeg  87.8414 -1.28202 -12.4036
LeftFoot  -27.1932 0.427367 1.76684
LeftToes  -42.1926 2.01279e-006 2.21547e-008
100
root  -70.4671 23.5695 42.1912 52.9865 83.6093 28.9415
RightUpLeg  -69.486 8.63272 -53.6679
RightLeg  55.2669 -0.258771 -0.391406
RightFoot  -19.5333 0.406494 2.73887
RightToes  -40.2815 -0.220736 -0.316707
Spine  24.1861 0.645301 0.847528
Spine1  36.7476 -3.00692 6.54326
HEad  1.84764 -0.530152 -2.91943
LeftShoulder1  0 -2.42657e-020 -4.95415e-022
LeftArm  -15.4965 -65.4834 -97.804
LeftForeArm  33.2661 -1.04228 -0.189309
LeftHand  -0.0183643 -0.822123 2.20794
RightShoulder  0 2.42657e-020 1.07489e-018
RightArm  -41.8111 52.8829 61.6574
RightForeArm  48.8078 30.5822 5.95437
RightHand  -3.88446 22.3722 -19.0964
LeftUpLeg  -75.2932 3.92722 10.6037
LeftLeg  87.2557 -1.00531 -8.91466
LeftFoot  -25.2442 0.243999 1.08958
LeftToes  -36.6875 2.01279e-006 2.21547e-008
101
root  -70.5182 24.1965 40.0698 49.5026 83.4229 25.1858
RightUpLeg  -65.766 9.02631 -51.3332
RightLeg  57.6515 -5.10204 -7.04154
RightFoot  -19.3418 0.815754 5.16203
RightToes  -32.5988 -0.16222 -0.269616
Spine  23.147 -0.396176 1.85765
Spine1  34.9608 -4.43033 7.28333
HEad  5.22882 0.0146381 -0.6062
LeftShoulder1  0 -2.42657e-020 -4.95415e-022
LeftArm  -15.7835 -63.8312 -95.5271
LeftForeArm  36.0486 -1.23797 -0.221231
LeftHand  -0.0191753 -1.2799 1.35404
RightShoulder  0 2.42657e-020 1.07489e-018
RightArm  -37.5194 51.4508 59.681
RightForeArm  54.6366 36.112 7.35601
RightHand  -3.91033 22.4911 -19.1194
LeftUpLeg  -75.7179 1.98256 6.36983
LeftLeg  86.4473 -0.93444 -7.3746
LeftFoot  -25.1091 0.23395 1.05051
LeftToes  -31.8088 2.01279e-006 2.21547e-008
102
root  -70.0538 24.7674 38.6994 -13.788 87.8269 -36.1695
RightUpLeg  -58.9107 10.9886 -38.4497
RightLeg  68.1936 -2.70877 -5.80693
RightFoot  -21.1567 0.703181 4.14166
RightToes  -34.9347 -0.179336 -0.284759
Spine  23.5854 -2.17008 5.732
Spine1  35.219 -7.56179 11.7993
HEad  7.28161 -0.493476 2.29792
LeftShoulder1  0 -2.42657e-020 -4.95415e-022
LeftArm  -19.4259 -63.0289 -94.0839
LeftForeArm  36.4892 -1.14585 -0.204701
LeftHand  -0.0222924 -1.15633 1.85003
RightShoulder  0 2.42657e-020 1.07489e-018
RightArm  -41.9476 50.4962 58.7193
RightForeArm  68.2083 42.0598 9.08934
RightHand  -3.25345 17.8859 -20.097
LeftUpLeg  -73.9377 -1.9095 8.43058
LeftLeg  86.3672 -0.933746 -7.2885
LeftFoot  -25.5142 0.304534 1.34501
LeftToes  -24.5163 2.01279e-006 2.21547e-008
103
root  -70.0189 25.0196 36.7729 44.9778 84.4114 24.2994
RightUpLeg  -58.043 7.35881 -33.2686
RightLeg  82.2383 -0.822089 -4.52381
RightFoot  -23.9418 0.709016 3.72076
RightToes  -32.38 -0.160649 -0.268163
Spine  23.521 -2.89681 4.44503
Spine1  35.2736 -8.04006 9.85416
HEad  9.12995 -2.40819 2.98876
LeftShoulder1  0 -2.42657e-020 -4.95415e-022
LeftArm  -28.9316 -60.4223 -90.1575
LeftForeArm  38.6572 -2.50858 -0.441235
LeftHand  -0.0401454 -1.93875 2.00952
RightShoulder  0 2.42657e-020 1.07489e-018
RightArm  -44.4419 49.2837 58.0754
RightForeArm  60.3321 45.3179 10.2347
RightHand  -3.46214 25.2235 -15.019
LeftUpLeg  -71.0509 -3.32364 0.657174
LeftLeg  84.9707 -0.756353 -4.96892
LeftFoot  -25.025 0.254385 1.14623
LeftToes  -18.3167 2.01279e-006 2.21547e-008
104
root  -69.9977 25.2282 34.8507 44.2688 79.6171 23.8074
RightUpLeg  -58.1838 4.493 -25.7406
RightLeg  92.6848 -0.0387917 -8.88831
RightFoot  -25.898 1.23476 5.74415
RightToes  -26.7889 -0.122446 -0.22904
Spine  23.5742 -1.98536 3.44088
Spine1  35.669 -5.42568 8.10825
HEad  8.89278 -4.51086 2.71635
LeftShoulder1  0 -2.42657e-020 -4.95415e-022
LeftArm  -30.9692 -58.1608 -91.143
LeftForeArm  37.7677 -5.07156 -0.893
LeftHand  -0.0203767 -2.63874 0.516119
RightShoulder  0 2.42657e-020 1.07489e-018
RightArm  -36.353 49.9252 63.6482
RightForeArm  40.4713 44.6921 10.051
RightHand  -5.57349 15.0457 -40.1132
LeftUpLeg  -69.9106 -1.91022 -6.22213
LeftLeg  83.4935 -0.492845 -2.77854
LeftFoot  -24.8497 0.248952 1.12992
LeftToes  -12.7978 2.01279e-006 2.21547e-008
105
root  -69.9155 25.574 33.0008 41.2398 74.603 20.7664
RightUpLeg  -56.8761 0.410183 -16.5076
RightLeg  98.3363 0.999921 -10.553
RightFoot  -27.0018 1.44693 6.39898
RightToes  -24.0814 -0.10536 -0.208801
Spine  23.6712 -1.04282 2.77535
Spine1  36.4607 -3.38842 7.67458
HEad  6.09027 -6.10995 1.39128
LeftShoulder1  0 -2.42657e-020 -4.95415e-022
LeftArm  -31.3539 -56.8052 -92.2038
LeftForeArm  38.103 -6.5084 -1.14706
LeftHand  0.0300498 -4.38704 -1.15629
RightShoulder  0 2.42657e-020 1.07489e-018
RightArm  -34.8121 59.0097 80.3026
RightForeArm  146.332 38.765 7.75604
RightHand  1.84126 3.90075 50.9689
LeftUpLeg  -68.7438 0.149572 -12.0887
LeftLeg  80.9951 -0.293034 -1.33214
LeftFoot  -24.4647 0.273187 1.26004
LeftToes  -7.86989 2.01279e-006 2.21547e-008
106
root  -69.9328 25.3325 31.3751 39.6821 69.8528 19.0084
RightUpLeg  -55.839 -5.36975 -6.88868
RightLeg  102.455 1.7237 -10.1413
RightFoot  -28.3568 1.36352 5.77111
RightToes  -24.4475 -0.107614 -0.211584
Spine  23.7898 -0.381055 4.03635
Spine1  36.6942 -0.658001 8.13593
HEad  5.63217 -7.60271 0.628463
LeftShoulder1  0 -2.42657e-020 -4.95415e-022
LeftArm  -28.8046 -53.366 -93.8786
LeftForeArm  38.402 -8.52059 -1.5058
LeftHand  0.0536305 -5.0287 -1.59342
RightShoulder  0 2.42657e-020 1.07489e-018
RightArm  -46.6214 43.2715 56.9177
RightForeArm  66.5687 29.5196 5.66188
RightHand  -6.34638 21.4272 -32.3025
LeftUpLeg  -69.7337 0.958095 -16.7148
LeftLeg  80.9445 0.195607 0.834738
LeftFoot  -25.4705 0.155459 0.687836
LeftToes  -2.77394 2.01279e-006 2.21547e-008
107
root  -69.9634 25.3143 29.7252 37.8313 65.1788 15.8163
RightUpLeg  -55.3923 -12.034 2.2527
RightLeg  101.937 1.27494 -7.77126
RightFoot  -26.5783 0.816011 3.83155
RightToes  -33.6411 -0.169781 -0.276459
Spine  23.3898 0.439037 4.80449
Spine1  36.4303 1.52297 8.87176
HEad  4.62593 -8.51221 -1.32253
LeftShoulder1  0 -2.42657e-020 -4.95415e-022
LeftArm  -26.3636 -49.8781 -94.9789
LeftForeArm  36.9117 -9.98758 -1.77161
LeftHand  0.0661359 -5.73601 -1.69206
RightShoulder  0 2.42657e-020 1.07489e-018
RightArm  -59.013 43.6644 54.2927
RightForeArm  53.0993 18.1624 3.28086
RightHand  -4.11113 22.0758 -20.4869
LeftUpLeg  -71.6209 1.71419 -20.4916
LeftLeg  79.747 0.734675 2.93047
LeftFoot  -25.5354 0.0605959 0.267402
LeftToes  1.34693 2.01279e-006 2.21547e-008
108
root  -69.9664 25.3914 28.1531 36.1632 59.9389 13.0863
RightUpLeg  -54.3243 -16.7372 8.8107
RightLeg  98.4746 0.616134 -5.76192
RightFoot  -26.8023 0.492724 2.44546
RightToes  -33.1959 -0.166536 -0.273553
Spine  22.6961 0.769224 4.98045
Spine1  35.705 2.1671 9.58997
HEad  3.36618 -8.55855 -3.45066
LeftShoulder1  0 -2.42657e-020 -4.95415e-022
LeftArm  -24.6557 -45.7231 -93.4383
LeftForeArm  33.5163 -11.0823 -1.97345
LeftHand  0.140569 -6.36121 -2.90234
RightShoulder  0 2.42657e-020 1.07489e-018
RightArm  -87.6431 41.942 58.7847
RightForeArm  54.3469 17.0038 3.05376
RightHand  -0.00478909 17.8943 0.33971
LeftUpLeg  -73.2096 3.00863 -24.0993
LeftLeg  77.8245 1.44872 5.06201
LeftFoot  -25.4657 -0.0706138 -0.312511
LeftToes  5.92588 2.01279e-006 2.21547e-008
109
root  -69.8448 25.6068 26.6413 35.1666 54.835 11.5065
RightUpLeg  -50.6912 -18.6792 11.679
RightLeg  91.8723 -0.027635 -4.52756
RightFoot  -26.154 0.27962 1.58134
RightToes  -37.7617 -0.200854 -0.302132
Spine  21.6103 0.789552 4.65497
Spine1  34.3263 2.07707 9.83664
HEad  2.38491 -8.09081 -4.79866
LeftShoulder1  0 -2.42657e-020 -4.95415e-022
LeftArm  -24.7503 -41.4938 -91.863
LeftForeArm  34.6751 -10.9449 -1.94746
LeftHand  0.214719 -7.09239 -3.83743
RightShoulder  0 2.42657e-020 1.07489e-018
RightArm  -95.2041 37.9564 57.1192
RightForeArm  32.2924 11.7166 2.0912
RightHand  -0.44259 17.0353 -2.58553
LeftUpLeg  -73.9364 2.92783 -26.7198
LeftLeg  75.2467 2.68512 7.97937
LeftFoot  -24.4594 -0.285089 -1.31524
LeftToes  8.59435 2.01279e-006 2.21547e-008
